<mxfile host="app.diagrams.net" modified="2024-06-11T09:26:09.792Z" agent="Mozilla/5.0 (Macintosh; Intel Mac OS X 10_15_7) AppleWebKit/537.36 (KHTML, like Gecko) Chrome/125.0.0.0 Safari/537.36" version="24.4.2" etag="KE9nQjT24AX-Di263c2x" type="github">
  <diagram name="第 1 页" id="OpWXI-62hVndfg1KT2bm">
    <mxGraphModel>
      <root>
        <mxCell id="0" />
        <mxCell id="1" parent="0" />
      </root>
    </mxGraphModel>
  </diagram>
</mxfile>
